<svg xmlns="http://www.w3.org/2000/svg" viewBox="0 0 32 32">
  <!-- background -->
  <rect width="32" height="32" rx="7" fill="#16A34A"/>
  <!-- document body -->
  <path d="M8 9a2 2 0 0 1 2-2h9l5 5v12a2 2 0 0 1-2 2H10a2 2 0 0 1-2-2V9z" fill="white"/>
  <!-- fold triangle -->
  <path d="M19 7 24 12 h-3a2 2 0 0 1-2-2V7z" fill="#15803D" opacity="0.35"/>
  <!-- text lines -->
  <rect x="11" y="15" width="10" height="1.8" rx="0.9" fill="#16A34A" opacity="0.4"/>
  <rect x="11" y="18.5" width="10" height="1.8" rx="0.9" fill="#16A34A" opacity="0.4"/>
  <rect x="11" y="22" width="6.5" height="1.8" rx="0.9" fill="#16A34A" opacity="0.4"/>
</svg>
